<svg width="157" height="84" viewBox="0 0 157 84" fill="none" xmlns="http://www.w3.org/2000/svg">
<g clip-path="url(#clip0_8816_76866)">
<path d="M0 3.95696C0 1.36212 2.30086 0 4.53615 0C6.77144 0 9.07231 1.36212 9.07231 3.95696V22.7043C11.3064 20.5635 14.4621 19.4613 18.209 19.4613C26.8212 19.4613 31.5541 25.3638 31.5541 33.1472C31.5541 42.0328 25.4407 48 15.7114 48C5.65322 48 0 41.5787 0 33.5354V3.95696ZM15.7114 40.606C19.3273 40.606 22.2194 38.3358 22.2194 33.7953C22.2194 29.3196 19.3273 26.92 15.7114 26.92C12.1612 26.92 9.20346 29.2549 9.20346 33.7953C9.20346 38.4005 12.1612 40.606 15.7114 40.606Z" fill="#DB1F26"/>
<path d="M35.301 10.1854C35.301 7.39647 37.4707 5.38621 40.4284 5.38621C43.3206 5.38621 45.4902 7.39647 45.4902 10.1854C45.4902 13.2343 43.3206 15.0505 40.4284 15.0505C37.4707 15.0505 35.301 13.2343 35.301 10.1854ZM40.3628 20.0449C43.1238 20.0449 44.8989 21.4717 44.8989 24.196V37.6219C44.8989 38.9193 45.2279 39.3734 46.2794 39.5028C47.8567 39.8274 48.777 41.8388 48.5803 43.7197C48.3168 45.5358 47.0019 47.352 43.255 47.352C39.1791 47.352 35.8923 44.6925 35.8923 39.8921V24.196C35.8923 21.3423 37.6018 20.0449 40.3628 20.0449Z" fill="#DB1F26"/>
<path d="M71.4571 33.0156C71.4571 29.0598 69.2218 27.3083 66.0006 27.3083C62.7794 27.3083 60.5453 29.0598 60.5453 33.0156V43.1339C60.5453 45.8581 58.5723 47.3508 56.0091 47.3508C53.4459 47.3508 51.5385 45.9887 51.5385 43.1339V32.952C51.5385 23.6124 57.6519 19.4614 66.0006 19.4614C74.3493 19.4614 80.4627 23.6124 80.4627 32.952V43.135C80.4627 45.9251 78.5564 47.3519 75.9266 47.3519C73.3622 47.3519 71.456 45.9898 71.456 43.135L71.4571 33.0156Z" fill="#DB1F26"/>
<path d="M116.356 37.8818C116.356 39.244 116.684 39.7627 117.737 39.8921C119.314 40.2167 120.169 42.0976 119.972 43.8491C119.775 45.6005 118.525 47.352 114.976 47.352C112.215 47.352 109.914 46.184 108.73 43.9785C106.627 46.1828 103.34 47.5449 98.5407 47.5449C90.192 47.5449 84.801 42.6799 84.801 34.4425C84.801 24.7782 91.5725 19.4592 100.71 19.4592C110.505 19.4592 116.356 19.853 116.356 29.5945V37.8818ZM101.312 26.5308C97.1705 26.5308 93.6766 28.8657 93.6766 33.7308C93.6766 38.2712 97.243 40.4108 101.098 40.4108C105.166 40.4108 108.806 38.0112 108.806 33.6002C108.805 28.7363 105.312 26.5308 101.312 26.5308Z" fill="#DB1F26"/>
</g>
<path d="M14.233 69.7273C14.233 71.2803 13.9489 72.6155 13.3807 73.733C12.8125 74.8456 12.0336 75.7027 11.044 76.304C10.0592 76.9006 8.93939 77.1989 7.68466 77.1989C6.42519 77.1989 5.30066 76.9006 4.31108 76.304C3.32623 75.7027 2.54972 74.8433 1.98153 73.7259C1.41335 72.6084 1.12926 71.2756 1.12926 69.7273C1.12926 68.1742 1.41335 66.8414 1.98153 65.7287C2.54972 64.6113 3.32623 63.7543 4.31108 63.1577C5.30066 62.5563 6.42519 62.2557 7.68466 62.2557C8.93939 62.2557 10.0592 62.5563 11.044 63.1577C12.0336 63.7543 12.8125 64.6113 13.3807 65.7287C13.9489 66.8414 14.233 68.1742 14.233 69.7273ZM12.0597 69.7273C12.0597 68.5436 11.8679 67.5469 11.4844 66.7372C11.1056 65.9228 10.5848 65.3073 9.92188 64.8906C9.26373 64.4692 8.51799 64.2585 7.68466 64.2585C6.84659 64.2585 6.09848 64.4692 5.44034 64.8906C4.7822 65.3073 4.26136 65.9228 3.87784 66.7372C3.49905 67.5469 3.30966 68.5436 3.30966 69.7273C3.30966 70.911 3.49905 71.91 3.87784 72.7244C4.26136 73.5341 4.7822 74.1496 5.44034 74.571C6.09848 74.9877 6.84659 75.196 7.68466 75.196C8.51799 75.196 9.26373 74.9877 9.92188 74.571C10.5848 74.1496 11.1056 73.5341 11.4844 72.7244C11.8679 71.91 12.0597 70.911 12.0597 69.7273ZM16.7987 81.0909V66.0909H18.8725V67.8594H19.0501C19.1732 67.6321 19.3507 67.3693 19.5827 67.071C19.8147 66.7727 20.1367 66.5123 20.5487 66.2898C20.9606 66.0625 21.5051 65.9489 22.1822 65.9489C23.0629 65.9489 23.8488 66.1714 24.5401 66.6165C25.2314 67.0616 25.7736 67.7031 26.1665 68.5412C26.5643 69.3793 26.7631 70.3878 26.7631 71.5668C26.7631 72.7457 26.5666 73.7566 26.1737 74.5994C25.7807 75.4375 25.2409 76.0838 24.5543 76.5384C23.8678 76.9882 23.0842 77.2131 22.2035 77.2131C21.5406 77.2131 20.9985 77.1018 20.5771 76.8793C20.1604 76.6567 19.8337 76.3963 19.5969 76.098C19.3602 75.7997 19.1779 75.5346 19.0501 75.3026H18.9222V81.0909H16.7987ZM18.8796 71.5455C18.8796 72.3125 18.9909 72.9848 19.2134 73.5625C19.436 74.1402 19.7579 74.5923 20.1793 74.919C20.6007 75.241 21.1168 75.402 21.7276 75.402C22.3621 75.402 22.8924 75.2339 23.3185 74.8977C23.7447 74.5568 24.0666 74.0952 24.2844 73.5128C24.507 72.9304 24.6183 72.2746 24.6183 71.5455C24.6183 70.8258 24.5094 70.1795 24.2915 69.6065C24.0785 69.0336 23.7565 68.5814 23.3256 68.25C22.8995 67.9186 22.3668 67.7528 21.7276 67.7528C21.1121 67.7528 20.5913 67.9115 20.1651 68.2287C19.7437 68.5459 19.4241 68.9886 19.2063 69.5568C18.9885 70.125 18.8796 70.7879 18.8796 71.5455ZM33.8441 77.2202C32.7693 77.2202 31.8436 76.9905 31.0671 76.5312C30.2953 76.0672 29.6987 75.4162 29.2773 74.5781C28.8607 73.7353 28.6523 72.7481 28.6523 71.6165C28.6523 70.4991 28.8607 69.5142 29.2773 68.6619C29.6987 67.8097 30.2859 67.1444 31.0387 66.6662C31.7963 66.188 32.6817 65.9489 33.695 65.9489C34.3105 65.9489 34.9071 66.0507 35.4847 66.2543C36.0624 66.4579 36.5808 66.7775 37.0401 67.2131C37.4994 67.6487 37.8616 68.2145 38.1268 68.9105C38.3919 69.6018 38.5245 70.4422 38.5245 71.4318V72.1847H29.8526V70.5938H36.4435C36.4435 70.035 36.3299 69.5402 36.1026 69.1094C35.8754 68.6738 35.5558 68.3305 35.1438 68.0795C34.7366 67.8286 34.2584 67.7031 33.7092 67.7031C33.1126 67.7031 32.5917 67.8499 32.1467 68.1435C31.7063 68.4323 31.3654 68.8111 31.1239 69.2798C30.8872 69.7438 30.7688 70.2481 30.7688 70.7926V72.0355C30.7688 72.7647 30.8967 73.3849 31.1523 73.8963C31.4128 74.4077 31.775 74.7983 32.239 75.0682C32.703 75.3333 33.2451 75.4659 33.8654 75.4659C34.2679 75.4659 34.6348 75.4091 34.9663 75.2955C35.2977 75.1771 35.5842 75.0019 35.8256 74.7699C36.0671 74.5379 36.2518 74.2514 36.3796 73.9105L38.3896 74.2727C38.2286 74.8646 37.9397 75.383 37.5231 75.8281C37.1112 76.2685 36.5927 76.6117 35.9677 76.858C35.3474 77.0994 34.6396 77.2202 33.8441 77.2202ZM40.8807 77V66.0909H42.9332V67.8239H43.0469C43.2457 67.2367 43.5961 66.7751 44.098 66.4389C44.6046 66.098 45.1776 65.9276 45.8168 65.9276C45.9493 65.9276 46.1056 65.9323 46.2855 65.9418C46.4702 65.9512 46.6146 65.9631 46.7188 65.9773V68.0085C46.6335 67.9848 46.482 67.9588 46.2642 67.9304C46.0464 67.8973 45.8286 67.8807 45.6108 67.8807C45.1089 67.8807 44.6615 67.9872 44.2685 68.2003C43.8802 68.4086 43.5724 68.6998 43.3452 69.0739C43.1179 69.4432 43.0043 69.8646 43.0043 70.3381V77H40.8807ZM51.6335 77.2415C50.9422 77.2415 50.3172 77.1136 49.7585 76.858C49.1998 76.5975 48.7571 76.2211 48.4304 75.7287C48.1084 75.2363 47.9474 74.6326 47.9474 73.9176C47.9474 73.3021 48.0658 72.7955 48.3026 72.3977C48.5393 72 48.8589 71.6851 49.2614 71.4531C49.6638 71.2211 50.1136 71.0459 50.6108 70.9276C51.108 70.8092 51.6146 70.7192 52.1307 70.6577C52.7841 70.5819 53.3144 70.5204 53.7216 70.473C54.1288 70.4209 54.4247 70.3381 54.6094 70.2244C54.794 70.1108 54.8864 69.9261 54.8864 69.6705V69.6207C54.8864 69.0005 54.7112 68.5199 54.3608 68.179C54.0152 67.8381 53.4991 67.6676 52.8125 67.6676C52.0975 67.6676 51.5341 67.8262 51.1222 68.1435C50.715 68.456 50.4332 68.804 50.277 69.1875L48.2812 68.733C48.518 68.0701 48.8636 67.535 49.3182 67.1278C49.7775 66.7159 50.3054 66.4176 50.902 66.233C51.4986 66.0436 52.1259 65.9489 52.7841 65.9489C53.2197 65.9489 53.6813 66.0009 54.169 66.1051C54.6615 66.2045 55.1207 66.3892 55.5469 66.6591C55.9777 66.929 56.3305 67.3149 56.6051 67.8168C56.8797 68.3139 57.017 68.9602 57.017 69.7557V77H54.9432V75.5085H54.858C54.7206 75.7831 54.5147 76.053 54.2401 76.3182C53.9654 76.5833 53.6127 76.8035 53.1818 76.9787C52.7509 77.1539 52.2348 77.2415 51.6335 77.2415ZM52.0952 75.5369C52.6823 75.5369 53.1842 75.4209 53.6009 75.1889C54.0223 74.9569 54.3419 74.6539 54.5597 74.2798C54.7822 73.901 54.8935 73.4962 54.8935 73.0653V71.6591C54.8177 71.7348 54.6709 71.8059 54.4531 71.8722C54.2401 71.9337 53.9962 71.9882 53.7216 72.0355C53.447 72.0781 53.1795 72.1184 52.919 72.1562C52.6586 72.1894 52.4408 72.2178 52.2656 72.2415C51.8537 72.2936 51.4773 72.3812 51.1364 72.5043C50.8002 72.6274 50.5303 72.8049 50.3267 73.0369C50.1278 73.2642 50.0284 73.5672 50.0284 73.946C50.0284 74.4716 50.2225 74.8693 50.6108 75.1392C50.9991 75.4044 51.4938 75.5369 52.0952 75.5369ZM64.9379 66.0909V67.7955H58.979V66.0909H64.9379ZM60.5771 63.4773H62.7006V73.7969C62.7006 74.2088 62.7622 74.5189 62.8853 74.7273C63.0084 74.9309 63.167 75.0705 63.3612 75.1463C63.56 75.2173 63.7754 75.2528 64.0075 75.2528C64.1779 75.2528 64.3271 75.241 64.4549 75.2173C64.5827 75.1937 64.6822 75.1747 64.7532 75.1605L65.1367 76.9148C65.0136 76.9621 64.8384 77.0095 64.6112 77.0568C64.3839 77.1089 64.0998 77.1373 63.7589 77.142C63.2002 77.1515 62.6793 77.0521 62.1964 76.8438C61.7134 76.6354 61.3228 76.3134 61.0245 75.8778C60.7262 75.4422 60.5771 74.8954 60.5771 74.2372V63.4773ZM67.2869 77V66.0909H69.4105V77H67.2869ZM68.3594 64.4077C67.9901 64.4077 67.6728 64.2846 67.4077 64.0384C67.1473 63.7874 67.017 63.4891 67.017 63.1435C67.017 62.7931 67.1473 62.4948 67.4077 62.2486C67.6728 61.9976 67.9901 61.8722 68.3594 61.8722C68.7287 61.8722 69.0436 61.9976 69.304 62.2486C69.5691 62.4948 69.7017 62.7931 69.7017 63.1435C69.7017 63.4891 69.5691 63.7874 69.304 64.0384C69.0436 64.2846 68.7287 64.4077 68.3594 64.4077ZM76.8626 77.2202C75.8398 77.2202 74.9473 76.9858 74.185 76.517C73.4227 76.0483 72.8308 75.3925 72.4094 74.5497C71.988 73.7069 71.7773 72.7221 71.7773 71.5952C71.7773 70.4635 71.988 69.474 72.4094 68.6264C72.8308 67.7789 73.4227 67.1207 74.185 66.652C74.9473 66.1832 75.8398 65.9489 76.8626 65.9489C77.8853 65.9489 78.7778 66.1832 79.5401 66.652C80.3024 67.1207 80.8943 67.7789 81.3157 68.6264C81.7371 69.474 81.9478 70.4635 81.9478 71.5952C81.9478 72.7221 81.7371 73.7069 81.3157 74.5497C80.8943 75.3925 80.3024 76.0483 79.5401 76.517C78.7778 76.9858 77.8853 77.2202 76.8626 77.2202ZM76.8697 75.4375C77.5326 75.4375 78.0818 75.2623 78.5174 74.9119C78.953 74.5616 79.275 74.0952 79.4833 73.5128C79.6964 72.9304 79.8029 72.2888 79.8029 71.5881C79.8029 70.892 79.6964 70.2528 79.4833 69.6705C79.275 69.0833 78.953 68.6122 78.5174 68.2571C78.0818 67.902 77.5326 67.7244 76.8697 67.7244C76.2021 67.7244 75.6481 67.902 75.2077 68.2571C74.7721 68.6122 74.4478 69.0833 74.2347 69.6705C74.0264 70.2528 73.9222 70.892 73.9222 71.5881C73.9222 72.2888 74.0264 72.9304 74.2347 73.5128C74.4478 74.0952 74.7721 74.5616 75.2077 74.9119C75.6481 75.2623 76.2021 75.4375 76.8697 75.4375ZM86.4418 70.5227V77H84.3182V66.0909H86.3565V67.8665H86.4915C86.7424 67.2888 87.1354 66.8248 87.6705 66.4744C88.2102 66.1241 88.8897 65.9489 89.7088 65.9489C90.4522 65.9489 91.1032 66.1051 91.6619 66.4176C92.2206 66.7254 92.6539 67.1847 92.9616 67.7955C93.2694 68.4062 93.4233 69.1615 93.4233 70.0611V77H91.2997V70.3168C91.2997 69.526 91.0938 68.9081 90.6818 68.4631C90.2699 68.0133 89.7041 67.7884 88.9844 67.7884C88.492 67.7884 88.054 67.8949 87.6705 68.108C87.2917 68.321 86.991 68.6335 86.7685 69.0455C86.5507 69.4527 86.4418 69.9451 86.4418 70.5227ZM101.735 77V62.4545H106.919C108.051 62.4545 108.989 62.6605 109.732 63.0724C110.475 63.4844 111.032 64.0478 111.401 64.7628C111.77 65.473 111.955 66.2732 111.955 67.1634C111.955 68.0582 111.768 68.8632 111.394 69.5781C111.025 70.2884 110.466 70.8518 109.718 71.2685C108.974 71.6804 108.039 71.8864 106.912 71.8864H103.347V70.0256H106.713C107.428 70.0256 108.008 69.9025 108.453 69.6562C108.899 69.4053 109.225 69.0644 109.434 68.6335C109.642 68.2027 109.746 67.7126 109.746 67.1634C109.746 66.6141 109.642 66.1264 109.434 65.7003C109.225 65.2741 108.896 64.9403 108.446 64.6989C108.001 64.4574 107.414 64.3366 106.685 64.3366H103.929V77H101.735ZM118.816 77.2202C117.793 77.2202 116.9 76.9858 116.138 76.517C115.376 76.0483 114.784 75.3925 114.363 74.5497C113.941 73.7069 113.73 72.7221 113.73 71.5952C113.73 70.4635 113.941 69.474 114.363 68.6264C114.784 67.7789 115.376 67.1207 116.138 66.652C116.9 66.1832 117.793 65.9489 118.816 65.9489C119.838 65.9489 120.731 66.1832 121.493 66.652C122.256 67.1207 122.847 67.7789 123.269 68.6264C123.69 69.474 123.901 70.4635 123.901 71.5952C123.901 72.7221 123.69 73.7069 123.269 74.5497C122.847 75.3925 122.256 76.0483 121.493 76.517C120.731 76.9858 119.838 77.2202 118.816 77.2202ZM118.823 75.4375C119.486 75.4375 120.035 75.2623 120.471 74.9119C120.906 74.5616 121.228 74.0952 121.436 73.5128C121.65 72.9304 121.756 72.2888 121.756 71.5881C121.756 70.892 121.65 70.2528 121.436 69.6705C121.228 69.0833 120.906 68.6122 120.471 68.2571C120.035 67.902 119.486 67.7244 118.823 67.7244C118.155 67.7244 117.601 67.902 117.161 68.2571C116.725 68.6122 116.401 69.0833 116.188 69.6705C115.98 70.2528 115.875 70.892 115.875 71.5881C115.875 72.2888 115.98 72.9304 116.188 73.5128C116.401 74.0952 116.725 74.5616 117.161 74.9119C117.601 75.2623 118.155 75.4375 118.823 75.4375ZM126.271 77V66.0909H128.324V67.8239H128.438C128.636 67.2367 128.987 66.7751 129.489 66.4389C129.995 66.098 130.568 65.9276 131.207 65.9276C131.34 65.9276 131.496 65.9323 131.676 65.9418C131.861 65.9512 132.005 65.9631 132.109 65.9773V68.0085C132.024 67.9848 131.873 67.9588 131.655 67.9304C131.437 67.8973 131.219 67.8807 131.001 67.8807C130.5 67.8807 130.052 67.9872 129.659 68.2003C129.271 68.4086 128.963 68.6998 128.736 69.0739C128.509 69.4432 128.395 69.8646 128.395 70.3381V77H126.271ZM139.684 66.0909V67.7955H133.725V66.0909H139.684ZM135.323 63.4773H137.447V73.7969C137.447 74.2088 137.508 74.5189 137.631 74.7273C137.754 74.9309 137.913 75.0705 138.107 75.1463C138.306 75.2173 138.522 75.2528 138.754 75.2528C138.924 75.2528 139.073 75.241 139.201 75.2173C139.329 75.1937 139.428 75.1747 139.499 75.1605L139.883 76.9148C139.76 76.9621 139.585 77.0095 139.357 77.0568C139.13 77.1089 138.846 77.1373 138.505 77.142C137.946 77.1515 137.425 77.0521 136.942 76.8438C136.46 76.6354 136.069 76.3134 135.771 75.8778C135.472 75.4422 135.323 74.8954 135.323 74.2372V63.4773ZM145.208 77.2415C144.516 77.2415 143.891 77.1136 143.333 76.858C142.774 76.5975 142.331 76.2211 142.005 75.7287C141.683 75.2363 141.522 74.6326 141.522 73.9176C141.522 73.3021 141.64 72.7955 141.877 72.3977C142.114 72 142.433 71.6851 142.836 71.4531C143.238 71.2211 143.688 71.0459 144.185 70.9276C144.682 70.8092 145.189 70.7192 145.705 70.6577C146.358 70.5819 146.889 70.5204 147.296 70.473C147.703 70.4209 147.999 70.3381 148.184 70.2244C148.368 70.1108 148.461 69.9261 148.461 69.6705V69.6207C148.461 69.0005 148.285 68.5199 147.935 68.179C147.589 67.8381 147.073 67.6676 146.387 67.6676C145.672 67.6676 145.108 67.8262 144.696 68.1435C144.289 68.456 144.007 68.804 143.851 69.1875L141.855 68.733C142.092 68.0701 142.438 67.535 142.892 67.1278C143.352 66.7159 143.88 66.4176 144.476 66.233C145.073 66.0436 145.7 65.9489 146.358 65.9489C146.794 65.9489 147.256 66.0009 147.743 66.1051C148.236 66.2045 148.695 66.3892 149.121 66.6591C149.552 66.929 149.905 67.3149 150.179 67.8168C150.454 68.3139 150.591 68.9602 150.591 69.7557V77H148.517V75.5085H148.432C148.295 75.7831 148.089 76.053 147.814 76.3182C147.54 76.5833 147.187 76.8035 146.756 76.9787C146.325 77.1539 145.809 77.2415 145.208 77.2415ZM145.669 75.5369C146.257 75.5369 146.758 75.4209 147.175 75.1889C147.596 74.9569 147.916 74.6539 148.134 74.2798C148.356 73.901 148.468 73.4962 148.468 73.0653V71.6591C148.392 71.7348 148.245 71.8059 148.027 71.8722C147.814 71.9337 147.57 71.9882 147.296 72.0355C147.021 72.0781 146.754 72.1184 146.493 72.1562C146.233 72.1894 146.015 72.2178 145.84 72.2415C145.428 72.2936 145.051 72.3812 144.711 72.5043C144.374 72.6274 144.105 72.8049 143.901 73.0369C143.702 73.2642 143.603 73.5672 143.603 73.946C143.603 74.4716 143.797 74.8693 144.185 75.1392C144.573 75.4044 145.068 75.5369 145.669 75.5369ZM155.543 62.4545V77H153.42V62.4545H155.543Z" fill="#4F4F4F"/>
<defs>
<clipPath id="clip0_8816_76866">
<rect width="120" height="48" fill="white"/>
</clipPath>
</defs>
</svg>
